<mxfile host="app.diagrams.net" modified="2023-12-09T12:07:25.253Z" agent="Mozilla/5.0 (X11; Linux x86_64) AppleWebKit/537.36 (KHTML, like Gecko) Chrome/102.0.0.0 Safari/537.36" etag="e4IKO3NyIS7_jtcNYm8Z" version="22.1.7" type="github">
  <diagram name="Страница — 1" id="z879CFBYKDdnv7S_wcnG">
    <mxGraphModel dx="1434" dy="660" grid="1" gridSize="10" guides="1" tooltips="1" connect="1" arrows="1" fold="1" page="1" pageScale="1" pageWidth="827" pageHeight="1169" math="0" shadow="0">
      <root>
        <mxCell id="0" />
        <mxCell id="1" parent="0" />
      </root>
    </mxGraphModel>
  </diagram>
</mxfile>
